<?xml version="1.0" encoding="iso-8859-1"?>
<!-- Generator: Adobe Illustrator 19.0.0, SVG Export Plug-In . SVG Version: 6.00 Build 0)  -->
<svg version="1.1" id="Capa_1" xmlns="http://www.w3.org/2000/svg" xmlns:xlink="http://www.w3.org/1999/xlink" x="0px" y="0px"
	 viewBox="0 0 512 512" style="enable-background:new 0 0 512 512;" xml:space="preserve">
<path style="fill:#D8FB93;" d="M36.002,215.824v250.404c0,19.757,16.016,35.772,35.772,35.772h368.453
	c19.757,0,35.772-16.016,35.772-35.772V215.824L278.093,69.405c-13.127-9.712-31.058-9.712-44.185,0L36.002,215.824z"/>
<path style="fill:#A0E557;" d="M320.812,371.01H191.187L36.002,215.824v250.404c0,19.757,16.016,35.772,35.772,35.772h368.453
	c19.757,0,35.772-16.016,35.772-35.772V215.824L320.812,371.01z"/>
<path style="fill:#62CD4D;" d="M301.586,351.782c-25.176-25.176-65.994-25.176-91.17,0L61.657,500.54
	c3.209,0.945,6.602,1.46,10.117,1.46h368.452c3.515,0,6.908-0.516,10.117-1.46L301.586,351.782z"/>
<polygon style="fill:#FEA02C;" points="256,10 293.082,85.135 293.316,85.17 375.999,97.184 316,155.67 330.163,238.252 
	256,199.261 181.837,238.252 196,155.67 136.001,97.184 218.918,85.135 "/>
<path d="M216,256.335c-5.522,0-10,4.478-10,10v30.608c0,5.522,4.478,10,10,10s10-4.478,10-10v-30.608
	C226,260.813,221.523,256.335,216,256.335z"/>
<path d="M296,256.335c-5.522,0-10,4.478-10,10v30.608c0,5.522,4.478,10,10,10c5.522,0,10-4.478,10-10v-30.608
	C306,260.813,301.523,256.335,296,256.335z"/>
<path d="M481.945,207.785l-116.592-86.259l17.626-17.181c2.726-2.657,3.706-6.631,2.53-10.251c-1.177-3.62-4.306-6.258-8.072-6.806
	l-77.715-11.293L264.968,5.574C263.283,2.161,259.807,0,256,0s-7.283,2.161-8.968,5.574l-34.754,70.421l-77.715,11.293
	c-3.767,0.547-6.896,3.186-8.072,6.806s-0.195,7.594,2.53,10.251l17.626,17.181L30.055,207.785
	c-2.549,1.886-4.053,4.869-4.053,8.039v250.404c0,25.239,20.533,45.772,45.772,45.772h368.453c25.239,0,45.772-20.533,45.772-45.772
	V215.824C485.998,212.653,484.494,209.67,481.945,207.785z M220.356,95.031c3.258-0.473,6.073-2.519,7.53-5.47L256,32.596
	l28.114,56.966c1.456,2.95,4.27,4.995,7.524,5.47l62.872,9.136l-45.491,44.343c-2.356,2.297-3.432,5.607-2.876,8.851l10.739,62.612
	l-56.229-29.562c-1.456-0.766-3.055-1.148-4.653-1.148c-1.598,0-3.197,0.383-4.653,1.148l-56.229,29.562l10.739-62.612
	c0.556-3.244-0.52-6.554-2.876-8.851l-45.491-44.343L220.356,95.031z M46.002,466.228V239.966l131.043,131.043L59.386,488.669
	c-0.032,0.032-0.058,0.067-0.089,0.099C51.376,484.366,46.002,475.914,46.002,466.228z M427.661,492H84.339l28.306-28.306H244
	c5.522,0,10-4.478,10-10s-4.478-10-10-10H132.645l22.938-22.938h64.743c5.522,0,10-4.478,10-10c0-5.522-4.478-10-10-10h-44.744
	l41.904-41.904C227.773,348.565,241.451,342.9,256,342.9s28.227,5.665,38.514,15.953L427.661,492z M452.704,488.768
	c-0.031-0.032-0.058-0.067-0.089-0.099L334.955,371.01l31.039-31.039c3.905-3.905,3.905-10.237,0-14.143
	c-3.906-3.904-10.236-3.904-14.143,0l-31.039,31.039l-12.157-12.157c-14.065-14.064-32.766-21.811-52.656-21.811
	s-38.591,7.746-52.656,21.811l-12.157,12.157L51.281,216.96l109.876-81.29l24.1,23.491l-13.275,77.4
	c-0.644,3.751,0.899,7.543,3.979,9.781c3.08,2.237,7.163,2.532,10.531,0.761l59.511-31.287v58.186c0,5.522,4.478,10,10,10
	c5.522,0,10-4.478,10-10v-58.186l59.51,31.287c1.463,0.769,3.061,1.148,4.652,1.148c2.073,0,4.137-0.644,5.879-1.91
	c3.079-2.237,4.622-6.029,3.979-9.781l-13.275-77.4l24.1-23.491l109.876,81.29l-49.508,49.507c-3.905,3.905-3.905,10.237,0,14.143
	c1.953,1.952,4.512,2.929,7.071,2.929s5.118-0.977,7.071-2.929l40.644-40.643v226.262
	C465.998,475.914,460.624,484.366,452.704,488.768z"/>
<path d="M383.097,294.583l-0.688,0.688c-3.905,3.905-3.905,10.237,0,14.143c1.953,1.952,4.512,2.929,7.071,2.929
	c2.559,0,5.118-0.977,7.071-2.929l0.688-0.688c3.905-3.905,3.905-10.237,0-14.143C393.333,290.679,387.003,290.679,383.097,294.583z
	"/>
<path d="M281,443.691c-2.63,0-5.21,1.07-7.07,2.931c-1.86,1.859-2.93,4.439-2.93,7.069c0,2.641,1.069,5.221,2.93,7.07
	c1.86,1.87,4.44,2.93,7.07,2.93c2.63,0,5.21-1.06,7.069-2.93c1.86-1.86,2.931-4.43,2.931-7.07c0-2.63-1.07-5.21-2.931-7.069
	C286.21,444.76,283.63,443.691,281,443.691z"/>
<g>
</g>
<g>
</g>
<g>
</g>
<g>
</g>
<g>
</g>
<g>
</g>
<g>
</g>
<g>
</g>
<g>
</g>
<g>
</g>
<g>
</g>
<g>
</g>
<g>
</g>
<g>
</g>
<g>
</g>
</svg>
